<svg version="1.1" xmlns="http://www.w3.org/2000/svg" xmlns:xlink="http://www.w3.org/1999/xlink" id="sprite">
	<symbol viewBox="0 0 486.742 486.742" id="graph">
		<path d="M33,362.371v78.9c0,4.8,3.9,8.8,8.8,8.8h61c4.8,0,8.8-3.9,8.8-8.8v-138.8l-44.3,44.3
			C57.9,356.071,45.9,361.471,33,362.371z"/>
		<path d="M142,301.471v139.8c0,4.8,3.9,8.8,8.8,8.8h61c4.8,0,8.8-3.9,8.8-8.8v-82.3c-13.9-0.3-26.9-5.8-36.7-15.6L142,301.471z"/>
		<path d="M251,350.271v91c0,4.8,3.9,8.8,8.8,8.8h61c4.8,0,8.8-3.9,8.8-8.8v-167.9l-69.9,69.9
			C257,345.971,254.1,348.271,251,350.271z"/>
		<path d="M432.7,170.171l-72.7,72.7v198.4c0,4.8,3.9,8.8,8.8,8.8h61c4.8,0,8.8-3.9,8.8-8.8v-265.6c-2-1.7-3.5-3.2-4.6-4.2
			L432.7,170.171z"/>
		<path d="M482.6,41.371c-2.9-3.1-7.3-4.7-12.9-4.7c-0.5,0-1.1,0-1.6,0c-28.4,1.3-56.7,2.7-85.1,4c-3.8,0.2-9,0.4-13.1,4.5
			c-1.3,1.3-2.3,2.8-3.1,4.6c-4.2,9.1,1.7,15,4.5,17.8l7.1,7.2c4.9,5,9.9,10,14.9,14.9l-171.6,171.7l-77.1-77.1
			c-4.6-4.6-10.8-7.2-17.4-7.2c-6.6,0-12.7,2.6-17.3,7.2L7.2,286.871c-9.6,9.6-9.6,25.1,0,34.7l4.6,4.6c4.6,4.6,10.8,7.2,17.4,7.2
			s12.7-2.6,17.3-7.2l80.7-80.7l77.1,77.1c4.6,4.6,10.8,7.2,17.4,7.2c6.6,0,12.7-2.6,17.4-7.2l193.6-193.6l21.9,21.8
			c2.6,2.6,6.2,6.2,11.7,6.2c2.3,0,4.6-0.6,7-1.9c1.6-0.9,3-1.9,4.2-3.1c4.3-4.3,5.1-9.8,5.3-14.1c0.8-18.4,1.7-36.8,2.6-55.3
			l1.3-27.7C487,49.071,485.7,44.571,482.6,41.371z"/>
	</symbol>
	<symbol viewBox="0 0 350 350" id="user">
		<path d="M175,171.173c38.914,0,70.463-38.318,70.463-85.586C245.463,38.318,235.105,0,175,0s-70.465,38.318-70.465,85.587
		C104.535,132.855,136.084,171.173,175,171.173z"/>
		<path d="M41.909,301.853C41.897,298.971,41.885,301.041,41.909,301.853L41.909,301.853z"/>
		<path d="M308.085,304.104C308.123,303.315,308.098,298.63,308.085,304.104L308.085,304.104z"/>
		<path d="M307.935,298.397c-1.305-82.342-12.059-105.805-94.352-120.657c0,0-11.584,14.761-38.584,14.761
			s-38.586-14.761-38.586-14.761c-81.395,14.69-92.803,37.805-94.303,117.982c-0.123,6.547-0.18,6.891-0.202,6.131
			c0.005,1.424,0.011,4.058,0.011,8.651c0,0,19.592,39.496,133.08,39.496c113.486,0,133.08-39.496,133.08-39.496
			c0-2.951,0.002-5.003,0.005-6.399C308.062,304.575,308.018,303.664,307.935,298.397z"/>
	</symbol>
	<symbol viewBox="0 0 256.61 256.61" id="documents">
		<path d="M60.859,112.533c-6.853,0-6.853,10.646,0,10.646c27.294,0,54.583,0,81.875,0c6.865,0,6.865-10.646,0-10.646
			C115.442,112.533,88.153,112.533,60.859,112.533z"/>
		<path d="M142.734,137.704c-27.292,0-54.581,0-81.875,0c-6.853,0-6.853,10.634,0,10.634c27.294,0,54.583,0,81.875,0
			C149.6,148.338,149.6,137.704,142.734,137.704z"/>
		<path d="M142.734,161.018c-27.292,0-54.581,0-81.875,0c-6.853,0-6.853,10.633,0,10.633c27.294,0,54.583,0,81.875,0
			C149.6,171.65,149.6,161.018,142.734,161.018z"/>
		<path d="M142.734,186.184c-27.292,0-54.581,0-81.875,0c-6.853,0-6.853,10.629,0,10.629c27.294,0,54.583,0,81.875,0
			C149.6,196.812,149.6,186.184,142.734,186.184z"/>
		<path d="M141.17,209.934c-27.302,0-54.601,0-81.89,0c-6.848,0-6.848,10.633,0,10.633c27.289,0,54.588,0,81.89,0
			C148.015,220.566,148.015,209.934,141.17,209.934z"/>
		<path d="M25.362,58.087V256.61h152.877V85.63l-28.406-27.543H25.362z M165.026,243.393H38.585V71.305h104.443v20.97h21.988
			v151.118H165.026z"/>
		<polygon points="51.204,27.667 51.204,50.645 64.427,50.645 64.427,40.88 168.875,40.88 168.875,61.85 190.868,61.85 
			190.868,212.971 185.059,212.971 185.059,226.188 204.086,226.188 204.086,55.205 175.68,27.667"/>
		<polygon points="202.837,0 78.363,0 78.363,22.983 91.581,22.983 91.581,13.218 196.032,13.218 196.032,34.188 218.025,34.188 
			218.025,185.306 212.221,185.306 212.221,198.523 231.248,198.523 231.248,27.543"/>
	</symbol>
	<symbol viewBox="0 0 55.5 55.5" id="credit_card">
		<path d="M48.83,8.583H6.67C2.992,8.583,0,11.575,0,15.252v24.996c0,3.677,2.992,6.668,6.67,6.668h42.16
		c3.678,0,6.67-2.991,6.67-6.668V15.252C55.5,11.575,52.508,8.583,48.83,8.583z M6.67,10.583h42.16c2.574,0,4.67,2.095,4.67,4.669H2
		C2,12.679,4.095,10.583,6.67,10.583z M48.83,44.917H6.67c-2.575,0-4.67-2.095-4.67-4.668V22.245h51.5v18.003
		C53.5,42.822,51.404,44.917,48.83,44.917z"/>
	</symbol>
	<symbol viewBox="0 0 268.832 268.832" id="arrow">
		<path d="M265.171,125.577l-80-80c-4.881-4.881-12.797-4.881-17.678,0c-4.882,4.882-4.882,12.796,0,17.678l58.661,58.661H12.5
		c-6.903,0-12.5,5.597-12.5,12.5c0,6.902,5.597,12.5,12.5,12.5h213.654l-58.659,58.661c-4.882,4.882-4.882,12.796,0,17.678
		c2.44,2.439,5.64,3.661,8.839,3.661s6.398-1.222,8.839-3.661l79.998-80C270.053,138.373,270.053,130.459,265.171,125.577z"/>
	</symbol>
	<symbol viewBox="0 0 512 512" id="question">
		<path d="M256,0C114.609,0,0,114.609,0,256c0,141.391,114.609,256,256,256c141.391,0,256-114.609,256-256
			C512,114.609,397.391,0,256,0z M256,472c-119.297,0-216-96.703-216-216S136.703,40,256,40s216,96.703,216,216S375.297,472,256,472
			z"/>
		<rect x="240" y="352" width="32" height="32"/>
		<path d="M317.734,150.148c-6.484-6.625-14.688-11.922-24.767-16.031c-10.202-4.102-22.172-6.117-36.28-6.117
			c-11.97,0-22.875,2.016-32.781,6.117c-9.938,4.109-18.5,9.773-25.688,17.125c-7.125,7.289-12.672,14.508-16.5,24.773
			C177.906,186.281,176,192,176,208h32.656c0-16,4.234-28.109,12.938-38.516c8.594-10.453,20.266-14.82,35.093-14.82
			c14.438,0,25.234,3.914,32.172,10.938c6.875,7.023,10.392,17.086,10.392,29.797c0,9.883-3.25,18.758-9.733,26.492
			c-6.375,7.75-13.359,15.297-20.845,22.438c-7.594,7.141-13.672,14.766-19.953,22.641c-6.281,7.875-8.72,17.046-8.72,27.499V320h32
			v-13.75c0-8.203,1.203-15.312,4.406-21.516c3.094-6.219,6.953-11.859,11.844-16.892c4.734-5.094,9.812-10,15.469-14.828
			c5.5-4.766,10.781-9.859,15.531-15.172c4.844-5.344,8.875-11.344,11.938-17.969c3.22-6.625,4.828-14.406,4.828-23.477
			c0-7.875-1.422-15.891-4.391-24.039C328.719,164.148,324.031,156.766,317.734,150.148z"/>
	</symbol>
	<symbol viewBox="0 0 510 510" id="message">
		<path d="M459,0H51C22.95,0,0,22.95,0,51v459l102-102h357c28.05,0,51-22.95,51-51V51C510,22.95,487.05,0,459,0z M408,306H102v-51
			h306V306z M408,229.5H102v-51h306V229.5z M408,153H102v-51h306V153z"/>
	</symbol>
	<symbol viewBox="0 0 384 384" id="close_all">
		<rect x="42.667" y="170.667" width="298.667" height="42.667"/>
		<rect x="0" y="256" width="298.667" height="42.667"/>
		<rect x="85.333" y="85.333" width="298.667" height="42.667"/>
	</symbol>
	<symbol viewBox="0 0 491.86 491.86" id="plus">
		<path d="M465.167,211.614H280.245V26.691c0-8.424-11.439-26.69-34.316-26.69s-34.316,18.267-34.316,26.69v184.924H26.69
			C18.267,211.614,0,223.053,0,245.929s18.267,34.316,26.69,34.316h184.924v184.924c0,8.422,11.438,26.69,34.316,26.69
			s34.316-18.268,34.316-26.69V280.245H465.17c8.422,0,26.69-11.438,26.69-34.316S473.59,211.614,465.167,211.614z"/>
	</symbol>
	<symbol viewBox="0 0 478.703 478.703" id="gear">
		<path d="M454.2,189.101l-33.6-5.7c-3.5-11.3-8-22.2-13.5-32.6l19.8-27.7c8.4-11.8,7.1-27.9-3.2-38.1l-29.8-29.8
			c-5.6-5.6-13-8.7-20.9-8.7c-6.2,0-12.1,1.9-17.1,5.5l-27.8,19.8c-10.8-5.7-22.1-10.4-33.8-13.9l-5.6-33.2
			c-2.4-14.3-14.7-24.7-29.2-24.7h-42.1c-14.5,0-26.8,10.4-29.2,24.7l-5.8,34c-11.2,3.5-22.1,8.1-32.5,13.7l-27.5-19.8
			c-5-3.6-11-5.5-17.2-5.5c-7.9,0-15.4,3.1-20.9,8.7l-29.9,29.8c-10.2,10.2-11.6,26.3-3.2,38.1l20,28.1
			c-5.5,10.5-9.9,21.4-13.3,32.7l-33.2,5.6c-14.3,2.4-24.7,14.7-24.7,29.2v42.1c0,14.5,10.4,26.8,24.7,29.2l34,5.8
			c3.5,11.2,8.1,22.1,13.7,32.5l-19.7,27.4c-8.4,11.8-7.1,27.9,3.2,38.1l29.8,29.8c5.6,5.6,13,8.7,20.9,8.7c6.2,0,12.1-1.9,17.1-5.5
			l28.1-20c10.1,5.3,20.7,9.6,31.6,13l5.6,33.6c2.4,14.3,14.7,24.7,29.2,24.7h42.2c14.5,0,26.8-10.4,29.2-24.7l5.7-33.6
			c11.3-3.5,22.2-8,32.6-13.5l27.7,19.8c5,3.6,11,5.5,17.2,5.5l0,0c7.9,0,15.3-3.1,20.9-8.7l29.8-29.8c10.2-10.2,11.6-26.3,3.2-38.1
			l-19.8-27.8c5.5-10.5,10.1-21.4,13.5-32.6l33.6-5.6c14.3-2.4,24.7-14.7,24.7-29.2v-42.1
			C478.9,203.801,468.5,191.501,454.2,189.101z M451.9,260.401c0,1.3-0.9,2.4-2.2,2.6l-42,7c-5.3,0.9-9.5,4.8-10.8,9.9
			c-3.8,14.7-9.6,28.8-17.4,41.9c-2.7,4.6-2.5,10.3,0.6,14.7l24.7,34.8c0.7,1,0.6,2.5-0.3,3.4l-29.8,29.8c-0.7,0.7-1.4,0.8-1.9,0.8
			c-0.6,0-1.1-0.2-1.5-0.5l-34.7-24.7c-4.3-3.1-10.1-3.3-14.7-0.6c-13.1,7.8-27.2,13.6-41.9,17.4c-5.2,1.3-9.1,5.6-9.9,10.8l-7.1,42
			c-0.2,1.3-1.3,2.2-2.6,2.2h-42.1c-1.3,0-2.4-0.9-2.6-2.2l-7-42c-0.9-5.3-4.8-9.5-9.9-10.8c-14.3-3.7-28.1-9.4-41-16.8
			c-2.1-1.2-4.5-1.8-6.8-1.8c-2.7,0-5.5,0.8-7.8,2.5l-35,24.9c-0.5,0.3-1,0.5-1.5,0.5c-0.4,0-1.2-0.1-1.9-0.8l-29.8-29.8
			c-0.9-0.9-1-2.3-0.3-3.4l24.6-34.5c3.1-4.4,3.3-10.2,0.6-14.8c-7.8-13-13.8-27.1-17.6-41.8c-1.4-5.1-5.6-9-10.8-9.9l-42.3-7.2
			c-1.3-0.2-2.2-1.3-2.2-2.6v-42.1c0-1.3,0.9-2.4,2.2-2.6l41.7-7c5.3-0.9,9.6-4.8,10.9-10c3.7-14.7,9.4-28.9,17.1-42
			c2.7-4.6,2.4-10.3-0.7-14.6l-24.9-35c-0.7-1-0.6-2.5,0.3-3.4l29.8-29.8c0.7-0.7,1.4-0.8,1.9-0.8c0.6,0,1.1,0.2,1.5,0.5l34.5,24.6
			c4.4,3.1,10.2,3.3,14.8,0.6c13-7.8,27.1-13.8,41.8-17.6c5.1-1.4,9-5.6,9.9-10.8l7.2-42.3c0.2-1.3,1.3-2.2,2.6-2.2h42.1
			c1.3,0,2.4,0.9,2.6,2.2l7,41.7c0.9,5.3,4.8,9.6,10,10.9c15.1,3.8,29.5,9.7,42.9,17.6c4.6,2.7,10.3,2.5,14.7-0.6l34.5-24.8
			c0.5-0.3,1-0.5,1.5-0.5c0.4,0,1.2,0.1,1.9,0.8l29.8,29.8c0.9,0.9,1,2.3,0.3,3.4l-24.7,34.7c-3.1,4.3-3.3,10.1-0.6,14.7
			c7.8,13.1,13.6,27.2,17.4,41.9c1.3,5.2,5.6,9.1,10.8,9.9l42,7.1c1.3,0.2,2.2,1.3,2.2,2.6v42.1H451.9z"/>
		<path d="M239.4,136.001c-57,0-103.3,46.3-103.3,103.3s46.3,103.3,103.3,103.3s103.3-46.3,103.3-103.3S296.4,136.001,239.4,136.001
			z M239.4,315.601c-42.1,0-76.3-34.2-76.3-76.3s34.2-76.3,76.3-76.3s76.3,34.2,76.3,76.3S281.5,315.601,239.4,315.601z"/>
	</symbol>
	<symbol viewBox="0 0 47.834 47.834" id="ring">
		<path d="M46.878,41.834H0.956l0.005-1.005c0.021-4.065,2.87-7.548,6.759-8.437V20.697C7.72,11.766,14.985,4.5,23.916,4.5
			c8.932,0,16.198,7.266,16.198,16.197v11.695c3.889,0.89,6.737,4.372,6.759,8.437L46.878,41.834z M3.042,39.834h41.75
			c-0.458-2.908-2.804-5.241-5.8-5.61l-0.878-0.107V20.697c0-7.828-6.369-14.197-14.198-14.197C16.088,6.5,9.72,12.869,9.72,20.697
			v13.419l-0.878,0.107C5.845,34.592,3.5,36.925,3.042,39.834z"/>
		<path d="M21.125,5.988h-2V4.792C19.125,2.149,21.274,0,23.917,0c2.642,0,4.791,2.149,4.791,4.792v1.176h-2V4.792
			C26.708,3.253,25.456,2,23.917,2c-1.539,0-2.792,1.253-2.792,2.792V5.988z"/>
		<path d="M23.903,47.834c-3.941,0-7.375-2.799-8.164-6.656l1.959-0.4c0.6,2.93,3.209,5.057,6.205,5.057
			c3.058,0,5.677-2.179,6.228-5.18l1.967,0.361C31.373,44.967,27.927,47.834,23.903,47.834z"/>
		<rect x="8.72" y="32.231" width="3.682" height="2"/>
		<rect x="18.167" y="32.231" width="20.947" height="2"/>
	</symbol>
	<symbol viewBox="0 0 47.971 47.971" id="close">
		<path d="M28.228,23.986L47.092,5.122c1.172-1.171,1.172-3.071,0-4.242c-1.172-1.172-3.07-1.172-4.242,0L23.986,19.744L5.121,0.88
		c-1.172-1.172-3.07-1.172-4.242,0c-1.172,1.171-1.172,3.071,0,4.242l18.865,18.864L0.879,42.85c-1.172,1.171-1.172,3.071,0,4.242
		C1.465,47.677,2.233,47.97,3,47.97s1.535-0.293,2.121-0.879l18.865-18.864L42.85,47.091c0.586,0.586,1.354,0.879,2.121,0.879
		s1.535-0.293,2.121-0.879c1.172-1.171,1.172-3.071,0-4.242L28.228,23.986z"/>
	</symbol>
</svg>